<svg xmlns="http://www.w3.org/2000/svg" version="1.1" xmlns:xlink="http://www.w3.org/1999/xlink" xmlns:svgjs="http://svgjs.dev/svgjs" width="1500" height="1500" viewBox="0 0 1500 1500"><rect width="1500" height="1500" fill="#ffffff"></rect><g transform="matrix(0.6666666666666666,0,0,0.6666666666666666,249.39393939393938,435.99032258064517)"><svg viewBox="0 0 396 248" data-background-color="#ffffff" preserveAspectRatio="xMidYMid meet" height="939" width="1500" xmlns="http://www.w3.org/2000/svg" xmlns:xlink="http://www.w3.org/1999/xlink"><g id="tight-bounds" transform="matrix(1,0,0,1,0.2400000000000091,0.4000000000000057)"><svg viewBox="0 0 395.52 247.2" height="247.2" width="395.52"><rect width="395.52" height="247.2" fill="#000000" mask="url(#af891d06-06a1-4870-8e62-850d95e9e86b)" data-fill-palette-color="tertiary"></rect><g><svg></svg></g><g><svg viewBox="0 0 395.52 247.2" height="247.2" width="395.52"><g transform="matrix(1,0,0,1,75.54432,80.17093311513734)"><svg viewBox="0 0 244.43135999999998 86.8581337697253" height="86.8581337697253" width="244.43135999999998"><g><svg viewBox="0 0 244.43135999999998 86.8581337697253" height="86.8581337697253" width="244.43135999999998"><g><svg viewBox="0 0 244.43135999999998 86.8581337697253" height="86.8581337697253" width="244.43135999999998"><g><svg viewBox="0 0 244.43135999999998 86.8581337697253" height="86.8581337697253" width="244.43135999999998"><g id="textblocktransform"><svg viewBox="0 0 244.43135999999998 86.8581337697253" height="86.8581337697253" width="244.43135999999998" id="textblock"><g><svg viewBox="0 0 244.43135999999998 86.8581337697253" height="86.8581337697253" width="244.43135999999998"><g transform="matrix(1,0,0,1,0,0)"><svg width="244.43135999999998" viewBox="1.85 -29.8 85.54 30.400000000000002" height="86.8581337697253" data-palette-color="#090909"><path d="M9.4 0.6Q7.3 0.6 5.95-0.35 4.6-1.3 4.6-3.5L4.6-3.5 4.6-15.25Q4.6-16.55 4.42-17.1 4.25-17.65 3.75-17.82 3.25-18 2.05-18L2.05-18Q1.85-18 1.85-18.32 1.85-18.65 2.05-18.65L2.05-18.65Q4.05-18.7 5.3-19.73 6.55-20.75 6.75-22.45L6.75-22.45Q6.75-22.6 7.15-22.6L7.15-22.6Q7.5-22.6 7.5-22.45L7.5-22.45 7.5-5.2Q7.5-1.15 11.45-1.15L11.45-1.15Q13.75-1.15 15.45-2.55L15.45-2.55 15.55-2.6Q15.75-2.6 15.85-2.38 15.95-2.15 15.8-2.05L15.8-2.05Q13.95-0.6 12.48 0 11 0.6 9.4 0.6L9.4 0.6ZM14.25-16.85Q11.05-17.65 6.65-17.65L6.65-17.65 6.65-18.75Q9.8-18.75 14.45-19.25L14.45-19.25Q14.55-19.25 14.68-18.88 14.8-18.5 14.8-18.05L14.8-18.05Q14.8-17.65 14.63-17.23 14.45-16.8 14.25-16.85L14.25-16.85ZM27.85 0.6Q24.95 0.6 22.9-0.75 20.85-2.1 19.77-4.3 18.7-6.5 18.7-9L18.7-9Q18.7-11.95 20.1-14.43 21.5-16.9 23.92-18.32 26.35-19.75 29.25-19.75L29.25-19.75Q32.05-19.75 33.55-18.25 35.05-16.75 35.05-14.05L35.05-14.05Q35.05-13.35 34.92-13.05 34.8-12.75 34.45-12.75L34.45-12.75 31.65-12.75 31.7-13.65Q31.7-16.15 30.6-17.45 29.5-18.75 27.6-18.75L27.6-18.75Q24.95-18.75 23.47-16.65 22-14.55 22-10.9L22-10.9Q22-6.55 24.05-3.85 26.1-1.15 29.8-1.15L29.8-1.15Q31.3-1.15 32.37-1.55 33.45-1.95 34.8-2.8L34.8-2.8 34.85-2.8Q35-2.8 35.12-2.63 35.25-2.45 35.15-2.3L35.15-2.3Q31.75 0.6 27.85 0.6L27.85 0.6ZM21.1-12.7L21.05-13.35 32.4-13.55 32.4-12.75 21.1-12.7ZM65.3 0Q65.15 0 65.15-0.3 65.15-0.6 65.3-0.6L65.3-0.6Q66.65-0.6 67.3-0.88 67.95-1.15 68.2-1.88 68.45-2.6 68.45-4.05L68.45-4.05 68.45-12Q68.45-14.95 67.4-16.4 66.34-17.85 64.15-17.85L64.15-17.85Q62.4-17.85 60.57-16.68 58.75-15.5 57.45-13.5L57.45-13.5 57.25-14.1Q59.34-17.05 61.42-18.43 63.5-19.8 65.8-19.8L65.8-19.8Q68.45-19.8 69.84-18.3 71.25-16.8 71.25-13.75L71.25-13.75 71.25-4.05Q71.25-2.55 71.5-1.85 71.75-1.15 72.4-0.88 73.05-0.6 74.4-0.6L74.4-0.6Q74.55-0.6 74.55-0.3 74.55 0 74.4 0L74.4 0Q73.25 0 72.55-0.05L72.55-0.05 69.84-0.1 67.15-0.05Q66.45 0 65.3 0L65.3 0ZM52.4 0Q52.25 0 52.25-0.3 52.25-0.6 52.4-0.6L52.4-0.6Q53.75-0.6 54.4-0.88 55.05-1.15 55.27-1.85 55.5-2.55 55.5-4.05L55.5-4.05 55.5-12Q55.5-14.95 54.45-16.4 53.4-17.85 51.25-17.85L51.25-17.85Q49.45-17.85 47.65-16.68 45.84-15.5 44.55-13.5L44.55-13.5 44.34-14.1Q46.45-17.05 48.52-18.43 50.59-19.8 52.84-19.8L52.84-19.8Q55.5-19.8 56.92-18.3 58.34-16.8 58.34-13.85L58.34-13.85 58.34-4.05Q58.34-2.55 58.59-1.85 58.84-1.15 59.5-0.88 60.15-0.6 61.5-0.6L61.5-0.6Q61.65-0.6 61.65-0.3 61.65 0 61.5 0L61.5 0Q60.34 0 59.65-0.05L59.65-0.05 56.95-0.1 54.2-0.05Q53.55 0 52.4 0L52.4 0ZM39.55 0Q39.4 0 39.4-0.3 39.4-0.6 39.55-0.6L39.55-0.6Q40.9-0.6 41.55-0.88 42.2-1.15 42.42-1.85 42.65-2.55 42.65-4.05L42.65-4.05 42.65-13.95Q42.65-15.65 42.25-16.4 41.84-17.15 40.9-17.15L40.9-17.15Q40.09-17.15 38.2-16.4L38.2-16.4 38.09-16.4Q37.9-16.4 37.82-16.63 37.75-16.85 37.95-16.95L37.95-16.95 43.75-19.7Q43.84-19.75 44.05-19.75L44.05-19.75Q44.5-19.75 45-18.6 45.5-17.45 45.5-15.65L45.5-15.65 45.5-4.05Q45.5-2.55 45.72-1.85 45.95-1.15 46.59-0.88 47.25-0.6 48.59-0.6L48.59-0.6Q48.75-0.6 48.75-0.3 48.75 0 48.59 0L48.59 0Q47.45 0 46.8-0.05L46.8-0.05 44.09-0.1 41.34-0.05Q40.7 0 39.55 0L39.55 0ZM78.09 0Q77.99 0 77.99-0.3 77.99-0.6 78.09-0.6L78.09-0.6Q79.44-0.6 80.12-0.88 80.79-1.15 81.04-1.85 81.29-2.55 81.29-4.05L81.29-4.05 81.29-13.4Q81.29-15.2 80.92-16 80.54-16.8 79.64-16.8L79.64-16.8Q78.74-16.8 77.39-16.1L77.39-16.1 77.34-16.1Q77.14-16.1 77.04-16.35 76.94-16.6 77.09-16.7L77.09-16.7 83.59-19.7 83.79-19.75Q83.89-19.75 84.04-19.63 84.19-19.5 84.19-19.35L84.19-19.35Q84.19-19 84.14-17.35 84.09-15.7 84.09-13.45L84.09-13.45 84.09-4.05Q84.09-2.55 84.34-1.85 84.59-1.15 85.24-0.88 85.89-0.6 87.24-0.6L87.24-0.6Q87.39-0.6 87.39-0.3 87.39 0 87.24 0L87.24 0Q86.09 0 85.39-0.05L85.39-0.05 82.69-0.1 79.99-0.05Q79.29 0 78.09 0L78.09 0ZM82.29-25.6Q81.29-25.6 80.69-26.15 80.09-26.7 80.09-27.7L80.09-27.7Q80.09-28.7 80.69-29.25 81.29-29.8 82.29-29.8L82.29-29.8Q83.29-29.8 83.84-29.25 84.39-28.7 84.39-27.7L84.39-27.7Q84.39-26.7 83.84-26.15 83.29-25.6 82.29-25.6L82.29-25.6Z" opacity="1" transform="matrix(1,0,0,1,0,0)" fill="#000000" class="wordmark-text-0" data-fill-palette-color="primary" id="text-0"></path></svg></g></svg></g></svg></g></svg></g></svg></g></svg></g></svg></g><g><path d="M0 123.6c0-68.262 55.338-123.6 123.6-123.6 49.026 0 91.385 28.543 111.365 69.918h-4.367c-19.677-39.143-60.201-66.002-106.998-66.002-66.099 0-119.684 53.584-119.684 119.684 0 66.099 53.584 119.684 119.684 119.684 46.797 0 87.322-26.859 106.998-66.002h4.367c-19.981 41.375-62.34 69.918-111.365 69.918-68.262 0-123.6-55.338-123.6-123.6z" fill="#000000" stroke="transparent" data-fill-palette-color="tertiary"></path></g></svg></g><defs></defs><mask id="af891d06-06a1-4870-8e62-850d95e9e86b"><g id="SvgjsG1348"><svg viewBox="0 0 395.52 247.2" height="247.2" width="395.52"><g><svg></svg></g><g><svg viewBox="0 0 395.52 247.2" height="247.2" width="395.52"><g transform="matrix(1,0,0,1,75.54432,80.17093311513734)"><svg viewBox="0 0 244.43135999999998 86.8581337697253" height="86.8581337697253" width="244.43135999999998"><g><svg viewBox="0 0 244.43135999999998 86.8581337697253" height="86.8581337697253" width="244.43135999999998"><g><svg viewBox="0 0 244.43135999999998 86.8581337697253" height="86.8581337697253" width="244.43135999999998"><g><svg viewBox="0 0 244.43135999999998 86.8581337697253" height="86.8581337697253" width="244.43135999999998"><g id="SvgjsG1347"><svg viewBox="0 0 244.43135999999998 86.8581337697253" height="86.8581337697253" width="244.43135999999998" id="SvgjsSvg1346"><g><svg viewBox="0 0 244.43135999999998 86.8581337697253" height="86.8581337697253" width="244.43135999999998"><g transform="matrix(1,0,0,1,0,0)"><svg width="244.43135999999998" viewBox="1.85 -29.8 85.54 30.400000000000002" height="86.8581337697253" data-palette-color="#090909"><path d="M9.4 0.6Q7.3 0.6 5.95-0.35 4.6-1.3 4.6-3.5L4.6-3.5 4.6-15.25Q4.6-16.55 4.42-17.1 4.25-17.65 3.75-17.82 3.25-18 2.05-18L2.05-18Q1.85-18 1.85-18.32 1.85-18.65 2.05-18.65L2.05-18.65Q4.05-18.7 5.3-19.73 6.55-20.75 6.75-22.45L6.75-22.45Q6.75-22.6 7.15-22.6L7.15-22.6Q7.5-22.6 7.5-22.45L7.5-22.45 7.5-5.2Q7.5-1.15 11.45-1.15L11.45-1.15Q13.75-1.15 15.45-2.55L15.45-2.55 15.55-2.6Q15.75-2.6 15.85-2.38 15.95-2.15 15.8-2.05L15.8-2.05Q13.95-0.6 12.48 0 11 0.6 9.4 0.6L9.4 0.6ZM14.25-16.85Q11.05-17.65 6.65-17.65L6.65-17.65 6.65-18.75Q9.8-18.75 14.45-19.25L14.45-19.25Q14.55-19.25 14.68-18.88 14.8-18.5 14.8-18.05L14.8-18.05Q14.8-17.65 14.63-17.23 14.45-16.8 14.25-16.85L14.25-16.85ZM27.85 0.6Q24.95 0.6 22.9-0.75 20.85-2.1 19.77-4.3 18.7-6.5 18.7-9L18.7-9Q18.7-11.95 20.1-14.43 21.5-16.9 23.92-18.32 26.35-19.75 29.25-19.75L29.25-19.75Q32.05-19.75 33.55-18.25 35.05-16.75 35.05-14.05L35.05-14.05Q35.05-13.35 34.92-13.05 34.8-12.75 34.45-12.75L34.45-12.75 31.65-12.75 31.7-13.65Q31.7-16.15 30.6-17.45 29.5-18.75 27.6-18.75L27.6-18.75Q24.95-18.75 23.47-16.65 22-14.55 22-10.9L22-10.9Q22-6.55 24.05-3.85 26.1-1.15 29.8-1.15L29.8-1.15Q31.3-1.15 32.37-1.55 33.45-1.95 34.8-2.8L34.8-2.8 34.85-2.8Q35-2.8 35.12-2.63 35.25-2.45 35.15-2.3L35.15-2.3Q31.75 0.6 27.85 0.6L27.85 0.6ZM21.1-12.7L21.05-13.35 32.4-13.55 32.4-12.75 21.1-12.7ZM65.3 0Q65.15 0 65.15-0.3 65.15-0.6 65.3-0.6L65.3-0.6Q66.65-0.6 67.3-0.88 67.95-1.15 68.2-1.88 68.45-2.6 68.45-4.05L68.45-4.05 68.45-12Q68.45-14.95 67.4-16.4 66.34-17.85 64.15-17.85L64.15-17.85Q62.4-17.85 60.57-16.68 58.75-15.5 57.45-13.5L57.45-13.5 57.25-14.1Q59.34-17.05 61.42-18.43 63.5-19.8 65.8-19.8L65.8-19.8Q68.45-19.8 69.84-18.3 71.25-16.8 71.25-13.75L71.25-13.75 71.25-4.05Q71.25-2.55 71.5-1.85 71.75-1.15 72.4-0.88 73.05-0.6 74.4-0.6L74.4-0.6Q74.55-0.6 74.55-0.3 74.55 0 74.4 0L74.4 0Q73.25 0 72.55-0.05L72.55-0.05 69.84-0.1 67.15-0.05Q66.45 0 65.3 0L65.3 0ZM52.4 0Q52.25 0 52.25-0.3 52.25-0.6 52.4-0.6L52.4-0.6Q53.75-0.6 54.4-0.88 55.05-1.15 55.27-1.85 55.5-2.55 55.5-4.05L55.5-4.05 55.5-12Q55.5-14.95 54.45-16.4 53.4-17.85 51.25-17.85L51.25-17.85Q49.45-17.85 47.65-16.68 45.84-15.5 44.55-13.5L44.55-13.5 44.34-14.1Q46.45-17.05 48.52-18.43 50.59-19.8 52.84-19.8L52.84-19.8Q55.5-19.8 56.92-18.3 58.34-16.8 58.34-13.85L58.34-13.85 58.34-4.05Q58.34-2.55 58.59-1.85 58.84-1.15 59.5-0.88 60.15-0.6 61.5-0.6L61.5-0.6Q61.65-0.6 61.65-0.3 61.65 0 61.5 0L61.5 0Q60.34 0 59.65-0.05L59.65-0.05 56.95-0.1 54.2-0.05Q53.55 0 52.4 0L52.4 0ZM39.55 0Q39.4 0 39.4-0.3 39.4-0.6 39.55-0.6L39.55-0.6Q40.9-0.6 41.55-0.88 42.2-1.15 42.42-1.85 42.65-2.55 42.65-4.05L42.65-4.05 42.65-13.95Q42.65-15.65 42.25-16.4 41.84-17.15 40.9-17.15L40.9-17.15Q40.09-17.15 38.2-16.4L38.2-16.4 38.09-16.4Q37.9-16.4 37.82-16.63 37.75-16.85 37.95-16.95L37.95-16.95 43.75-19.7Q43.84-19.75 44.05-19.75L44.05-19.75Q44.5-19.75 45-18.6 45.5-17.45 45.5-15.65L45.5-15.65 45.5-4.05Q45.5-2.55 45.72-1.85 45.95-1.15 46.59-0.88 47.25-0.6 48.59-0.6L48.59-0.6Q48.75-0.6 48.75-0.3 48.75 0 48.59 0L48.59 0Q47.45 0 46.8-0.05L46.8-0.05 44.09-0.1 41.34-0.05Q40.7 0 39.55 0L39.55 0ZM78.09 0Q77.99 0 77.99-0.3 77.99-0.6 78.09-0.6L78.09-0.6Q79.44-0.6 80.12-0.88 80.79-1.15 81.04-1.85 81.29-2.55 81.29-4.05L81.29-4.05 81.29-13.4Q81.29-15.2 80.92-16 80.54-16.8 79.64-16.8L79.64-16.8Q78.74-16.8 77.39-16.1L77.39-16.1 77.34-16.1Q77.14-16.1 77.04-16.35 76.94-16.6 77.09-16.7L77.09-16.7 83.59-19.7 83.79-19.75Q83.89-19.75 84.04-19.63 84.19-19.5 84.19-19.35L84.19-19.35Q84.19-19 84.14-17.35 84.09-15.7 84.09-13.45L84.09-13.45 84.09-4.05Q84.09-2.55 84.34-1.85 84.59-1.15 85.24-0.88 85.89-0.6 87.24-0.6L87.24-0.6Q87.39-0.6 87.39-0.3 87.39 0 87.24 0L87.24 0Q86.09 0 85.39-0.05L85.39-0.05 82.69-0.1 79.99-0.05Q79.29 0 78.09 0L78.09 0ZM82.29-25.6Q81.29-25.6 80.69-26.15 80.09-26.7 80.09-27.7L80.09-27.7Q80.09-28.7 80.69-29.25 81.29-29.8 82.29-29.8L82.29-29.8Q83.29-29.8 83.84-29.25 84.39-28.7 84.39-27.7L84.39-27.7Q84.39-26.7 83.84-26.15 83.29-25.6 82.29-25.6L82.29-25.6Z" opacity="1" transform="matrix(1,0,0,1,0,0)" fill="black" class="wordmark-text-0" id="SvgjsPath1345"></path></svg></g></svg></g></svg></g></svg></g></svg></g></svg></g></svg></g><g><path d="M0 123.6c0-68.262 55.338-123.6 123.6-123.6 49.026 0 91.385 28.543 111.365 69.918h-4.367c-19.677-39.143-60.201-66.002-106.998-66.002-66.099 0-119.684 53.584-119.684 119.684 0 66.099 53.584 119.684 119.684 119.684 46.797 0 87.322-26.859 106.998-66.002h4.367c-19.981 41.375-62.34 69.918-111.365 69.918-68.262 0-123.6-55.338-123.6-123.6z" fill="white" stroke="transparent"></path></g></svg></g><defs><mask></mask></defs></svg><rect width="395.52" height="247.2" fill="black" stroke="none" visibility="hidden"></rect></g></mask><linearGradient x1="0.054" x2="0.941" y1="0.5" y2="0.5" id="cdcce602-204b-4828-b150-e374f053ec9d"><stop stop-color="#eaa79c" offset="0"></stop><stop stop-color="#f2e8cb" offset="0.498"></stop><stop stop-color="#eaa79c" offset="1"></stop></linearGradient></svg><rect width="395.52" height="247.2" fill="none" stroke="none" visibility="hidden"></rect></g></svg></g></svg>